<svg id="Capa_1" class="btn btn-1" enable-background="new 0 0 512 512" height="512" viewBox="0 0 512 512" width="512" xmlns="http://www.w3.org/2000/svg"><g><path d="m277.797 36.714c4.143 0 7.5-3.357 7.5-7.5v-21.714c0-4.143-3.357-7.5-7.5-7.5s-7.5 3.357-7.5 7.5v21.714c0 4.142 3.358 7.5 7.5 7.5z"/><path d="m192.078 53.817c1.465 1.467 3.386 2.2 5.307 2.2 1.918 0 3.836-.731 5.3-2.193 2.931-2.928 2.934-7.676.007-10.606l-15.346-15.364c-2.928-2.931-7.677-2.934-10.606-.007-2.931 2.928-2.934 7.676-.007 10.606z"/><path d="m358.182 56.018c1.921 0 3.842-.733 5.307-2.2l15.346-15.364c2.927-2.931 2.924-7.679-.007-10.606-2.93-2.927-7.679-2.924-10.606.007l-15.346 15.364c-2.927 2.931-2.924 7.679.007 10.606 1.463 1.461 3.381 2.193 5.299 2.193z"/><path d="m395.754 447.767c4.143 0 7.5-3.357 7.5-7.5v-58.698l13.187 13.201c1.465 1.466 3.386 2.199 5.307 2.199 1.918 0 3.836-.731 5.301-2.193 2.93-2.928 2.933-7.677.006-10.607l-25.993-26.022c-.129-.129-.235-.222-.331-.301-1.324-1.177-3.064-1.899-4.976-1.899-1.94 0-3.702.742-5.033 1.951-.06.049-.123.109-.186.169-.029.028-.061.053-.09.082l-26.016 26.018c-2.929 2.929-2.929 7.678.001 10.606 1.464 1.464 3.384 2.196 5.303 2.196s3.839-.732 5.304-2.197l13.217-13.218v58.712c-.001 4.143 3.357 7.501 7.499 7.501z"/><path d="m138.505 328.111c-.023 0-.044 0-.066 0-19.048 0-34.565 15.489-34.602 34.557-.036 19.097 15.452 34.662 34.512 34.698h.134c9.182 0 17.819-3.563 24.335-10.042 6.568-6.531 10.195-15.237 10.213-24.514.036-19.097-15.452-34.663-34.526-34.699zm13.737 48.576c-3.685 3.664-8.568 5.679-13.773 5.679-.025 0-.052 0-.076 0-10.803-.021-19.575-8.844-19.555-19.669.021-10.808 8.811-19.586 19.602-19.586h.037c10.803.021 19.575 8.845 19.555 19.67-.011 5.266-2.068 10.204-5.79 13.906z"/><path d="m482.509 368.93c-1.47-3.87-5.8-5.83-9.67-4.36-3.88 1.46-5.83 5.79-4.37 9.66 10.81 28.62 3.84 61.07-17.74 82.68-14.69 14.7-34.22 22.8-54.99 22.8s-40.3-8.1-54.99-22.8c-2.22-2.22-4.28-4.55-6.16-6.96-1.34-1.69-2.59-3.43-3.76-5.2-2.02-3.05-3.79-6.22-5.32-9.47-.06-.11-.11-.22-.16-.33-6.51-13.91-8.69-29.36-6.54-44.3.74-5.09 1.97-10.12 3.71-15 1.73-4.86 3.95-9.59 6.68-14.09 3.17-5.26 7.02-10.22 11.55-14.75 5.31-5.32 11.27-9.78 17.69-13.3 11.3-6.21 24.05-9.5 37.3-9.5 20.77 0 40.3 8.09 54.99 22.8 2.93 2.93 7.68 2.93 10.61 0 2.93-2.92 2.93-7.67 0-10.6-8.76-8.77-18.97-15.57-30.08-20.18s-23.13-7.02-35.52-7.02c-7 0-13.89.77-20.56 2.27 1.48-1.8 2.97-3.61 4.47-5.42 22.33-26.96 45.41-54.84 45.35-105.75-.04-40.33-13.63-75.02-39.32-100.32-26.92-26.52-66.26-41.37-107.88-40.83-.81-.01-1.61-.02-2.41-.02-44.66 0-85.37 17.32-111.99 47.74-2.73 3.11-2.41 7.85.7 10.58 3.12 2.73 7.86 2.41 10.59-.7 24.22-27.67 61.8-43.18 103-42.6h.21c37.7-.51 73.15 12.78 97.26 36.52 22.76 22.42 34.81 53.42 34.84 89.64.06 45.5-20.32 70.12-41.9 96.17-6.91 8.34-13.9 16.78-20.19 25.97-6.39 3.86-12.36 8.53-17.77 13.95-11.36 11.38-19.15 24.99-23.38 39.44h-22.85v-139.093h15.576c4.143 0 7.5-3.357 7.5-7.5s-3.357-7.5-7.5-7.5h-47.03c-4.143 0-7.5 3.357-7.5 7.5s3.357 7.5 7.5 7.5h16.454v139.093h-39.64c-1.73-12.06-5.09-22.64-9.5-32.23-.9-1.99-1.86-3.93-2.85-5.83-8.12-15.54-18.88-28.54-29.45-41.3-1.38-1.66-2.75-3.32-4.11-4.98-11.07-13.45-21.48-26.9-28.55-43.46h-.01c-5.71-13.35-9.26-28.72-9.23-47.73.02-20.93 3.98-40.05 11.76-56.83 1.74-3.76.11-8.22-3.65-9.96s-8.22-.11-9.96 3.65c-8.7 18.76-13.13 40-13.15 63.13-.03 18.58 3.03 34.09 8.02 47.61l-14.23-.03c-10.07 0-18.26 8.19-18.26 18.23l-.01 5.39c-3.06 1.12-6.05 2.39-8.96 3.79l-3.87-3.89c-7.11-7.11-18.68-7.13-25.8-.05-.01.01-.01.01-.01.01l-20.21 20.17c-3.45 3.44-5.36 8.02-5.37 12.91-.01 4.88 1.88 9.46 5.31 12.9l4.42 4.43c-1.28 2.76-2.42 5.58-3.42 8.45l-6.35-.02c-10.07 0-18.26 8.18-18.26 18.23l-.06 28.55c-.02 4.87 1.86 9.47 5.32 12.93 3.44 3.47 8.02 5.38 12.87 5.38l6.89.01c.99 2.71 2.1 5.37 3.32 7.98l-4.9 4.9c-3.45 3.43-5.36 8.02-5.36 12.9-.01 4.88 1.88 9.47 5.3 12.9l20.17 20.3c7.11 7.08 18.68 7.09 25.79.02l4.91-4.91c2.59 1.24 5.23 2.35 7.91 3.34v6.88c-.04 10.06 8.11 18.29 18.19 18.34l28.59.05c10.02 0 18.21-8.16 18.26-18.22l.01-6.37c2.85-.99 5.65-2.12 8.4-3.37l4.43 4.45c7.1 7.11 18.68 7.13 25.81.03l4.54-4.53c.73.1 1.49.15 2.25.15h8.56v23.51c0 21.25 17.26 38.54 38.47 38.54h29.08c21.23 0 38.51-17.29 38.51-38.54v-5.28c17.44 17.12 40.45 26.53 64.91 26.53 24.78 0 48.08-9.66 65.6-27.2 25.74-25.77 34.05-64.46 21.17-98.58zm-283.79 24.2v39.31c0 3.26.89 6.32 2.46 8.94l-2.34 2.33c-1.25 1.24-3.37 1.24-4.61 0l-8.21-8.25c-2.32-2.34-5.89-2.88-8.8-1.35-5.1 2.68-10.47 4.83-15.97 6.4-3.22.91-5.45 3.85-5.45 7.19l-.03 11.83c-.01 1.78-1.5 3.28-3.25 3.28l-28.55-.05c-1.76-.01-3.24-1.51-3.24-3.3v-12.3c0-3.31-2.16-6.22-5.32-7.18-5.31-1.61-10.5-3.8-15.4-6.51-1.14-.63-2.38-.93-3.62-.93-1.94 0-3.86.75-5.3 2.19l-8.77 8.75c-1.25 1.24-3.37 1.23-4.59.01l-20.15-20.29c-.82-.81-.94-1.78-.94-2.28.01-.51.13-1.48.97-2.31l8.75-8.76c2.34-2.35 2.87-5.96 1.29-8.87-2.68-4.94-4.85-10.16-6.47-15.52-.95-3.16-3.86-5.33-7.16-5.33l-12.31-.03c-1.13 0-1.9-.6-2.25-.96-.36-.35-.96-1.13-.95-2.3l.06-28.59c0-1.78 1.46-3.24 3.24-3.24l11.83.03h.02c3.35 0 6.3-2.23 7.22-5.46 1.56-5.5 3.72-10.86 6.44-15.93 1.56-2.91 1.04-6.5-1.29-8.84l-8.22-8.25c-.82-.82-.94-1.79-.94-2.29s.13-1.47.96-2.3l20.21-20.18c1.27-1.26 3.34-1.25 4.59.01l7.76 7.79c2.38 2.39 6.05 2.9 8.99 1.25 5.12-2.87 10.63-5.21 16.37-6.96 3.16-.95 5.32-3.86 5.32-7.15l.03-10.79c0-1.79 1.46-3.25 3.25-3.25l20.89.04c8.51 16.36 19.69 29.86 30.68 43.13 17.12 20.69 33.37 40.32 38.18 69.93-8.65 1.04-15.38 8.41-15.38 17.34zm33.55 41.82h-16.06c-1.35 0-2.49-1.15-2.49-2.51v-39.31c0-1.06.7-1.98 1.65-2.33.26-.1.54-.15.84-.15h87.48c-1.79 14.88 0 30.12 5.38 44.3zm83.56 38.51c0 12.98-10.55 23.54-23.51 23.54h-29.08c-12.94 0-23.47-10.56-23.47-23.54v-23.51h76.06z"/></g></svg>